<?xml version="1.0" standalone="no"?>
<!DOCTYPE svg PUBLIC "-//W3C//DTD SVG 20010904//EN"
 "http://www.w3.org/TR/2001/REC-SVG-20010904/DTD/svg10.dtd">
<svg version="1.0" xmlns="http://www.w3.org/2000/svg"
 width="2396.000000pt" height="3040.000000pt" viewBox="0 0 2396.000000 3040.000000"
 preserveAspectRatio="xMidYMid meet">
<metadata>
Created by potrace 1.16, written by Peter Selinger 2001-2019
</metadata>
<g transform="translate(0.000000,3040.000000) scale(0.100000,-0.100000)"
fill="#000000" stroke="none">
<path d="M11600 28119 c-47 -10 -161 -28 -255 -39 -217 -25 -217 -25 -240 -37
-22 -11 -76 -21 -163 -29 -32 -2 -77 -7 -102 -11 -25 -3 -76 -5 -115 -5 -38 1
-104 1 -145 1 -41 -1 -88 -1 -105 -1 -51 0 -173 -28 -184 -42 -7 -8 -26 -13
-44 -11 -42 3 -241 -78 -267 -110 -7 -8 -21 -15 -32 -15 -11 0 -32 -8 -46 -19
-29 -20 -102 -44 -102 -33 0 4 -5 -1 -11 -10 -5 -10 -15 -18 -22 -18 -7 0 -30
-10 -52 -21 -22 -12 -52 -25 -67 -29 -35 -11 -109 8 -126 32 -7 10 -17 16 -22
13 -4 -3 -32 -7 -62 -10 -51 -5 -100 -20 -161 -51 -16 -8 -40 -14 -53 -14 -13
0 -24 -4 -24 -9 0 -6 -20 -13 -45 -17 -25 -3 -45 -10 -45 -15 0 -5 -7 -6 -15
-3 -8 3 -28 -4 -44 -15 -16 -12 -35 -21 -43 -21 -7 0 -24 -7 -36 -16 -12 -8
-27 -12 -32 -9 -6 3 -10 2 -10 -2 0 -8 -47 -23 -112 -37 -16 -4 -32 -1 -40 7
-20 20 -66 29 -87 17 -13 -7 -20 -7 -23 1 -2 7 -13 7 -33 -1 -17 -7 -41 -14
-54 -16 -33 -7 -43 -13 -35 -26 4 -6 -1 -6 -14 1 -31 17 -52 13 -73 -11 l-19
-23 10 28 c9 25 6 31 -12 28 -5 0 -8 4 -8 10 0 8 -5 7 -16 -1 -12 -11 -15 -11
-12 1 2 10 -9 14 -47 15 -27 0 -54 -2 -60 -5 -5 -3 -14 -6 -20 -7 -5 0 -16 -2
-23 -2 -16 -2 -45 -69 -37 -83 4 -5 -1 -12 -9 -15 -9 -3 -16 -17 -16 -31 0
-13 4 -21 10 -18 6 3 10 1 10 -4 0 -6 -4 -11 -10 -11 -5 0 -10 -19 -10 -42 0
-24 -12 -97 -26 -163 -13 -66 -26 -127 -27 -135 -2 -9 -7 -21 -11 -28 -4 -7
-10 -28 -13 -45 -3 -18 -11 -39 -19 -48 -8 -8 -14 -19 -14 -23 0 -4 -6 -13
-12 -21 -7 -7 -24 -28 -38 -46 -14 -18 -31 -38 -37 -45 -7 -7 -13 -15 -13 -18
0 -21 -85 -80 -101 -70 -5 3 -9 1 -9 -4 0 -6 -8 -9 -17 -8 -10 0 -17 -5 -15
-12 1 -8 -3 -12 -10 -9 -7 2 -12 12 -12 21 1 9 -3 15 -9 13 -7 -2 -18 2 -25
10 -16 15 -42 17 -42 3 0 -5 -5 -10 -11 -10 -6 0 -8 9 -3 23 3 12 3 19 -1 15
-4 -4 -16 -3 -27 3 -19 10 -131 14 -171 6 -10 -2 -22 -8 -26 -15 -3 -6 -26 -9
-51 -8 -24 2 -55 -1 -67 -7 -17 -7 -30 -7 -47 3 -13 7 -29 10 -34 6 -6 -3 -17
0 -25 8 -11 11 -17 12 -27 3 -9 -9 -14 -9 -17 -1 -2 7 -17 9 -36 7 -18 -3 -40
-5 -49 -4 -10 1 -31 3 -48 4 -16 1 -30 5 -30 8 0 9 -119 -20 -149 -36 -34 -18
-81 -60 -81 -71 0 -6 -12 -15 -27 -22 -43 -18 -115 -60 -135 -79 -15 -13 -20
-14 -33 -3 -14 11 -17 10 -22 -9 -4 -17 -11 -21 -27 -17 -15 4 -26 -1 -34 -14
-7 -12 -23 -20 -40 -20 -15 -1 -38 -7 -52 -15 -32 -18 -41 -18 -34 0 5 13 0
13 -40 1 -25 -8 -46 -10 -46 -5 0 5 -7 9 -15 9 -8 0 -15 -4 -15 -10 0 -5 -5
-10 -11 -10 -5 0 -7 5 -4 10 10 16 -7 12 -28 -7 -11 -10 -17 -12 -12 -4 6 10
2 12 -15 6 -12 -4 -29 -8 -37 -9 -8 -1 -19 -9 -24 -17 -7 -12 -9 -12 -9 1 0
10 -5 7 -16 -8 -8 -12 -20 -19 -26 -16 -7 4 -8 2 -4 -4 4 -7 3 -12 -3 -12 -8
0 -18 -19 -26 -50 -1 -3 -7 -18 -13 -33 -7 -16 -12 -33 -12 -38 0 -5 -9 -19
-20 -31 -11 -12 -26 -34 -32 -50 -7 -15 -19 -28 -26 -28 -8 0 -10 -5 -6 -12 5
-8 2 -9 -12 -3 -10 4 -41 8 -68 9 -27 0 -51 6 -53 12 -2 7 -13 10 -23 7 -11
-3 -20 -1 -20 5 0 12 -60 51 -115 73 -54 22 -125 18 -163 -9 -16 -12 -33 -22
-38 -22 -11 0 -73 -72 -80 -92 -3 -10 -10 -18 -15 -18 -5 0 -21 -24 -35 -52
-21 -43 -27 -71 -29 -143 -4 -101 10 -282 26 -335 19 -63 33 -144 43 -265 4
-44 14 -107 21 -140 8 -33 19 -89 25 -125 13 -82 17 -107 25 -146 5 -27 1 -36
-27 -59 -18 -15 -35 -33 -38 -40 -3 -7 -31 -42 -63 -78 -60 -67 -86 -81 -151
-79 -16 0 -34 6 -39 11 -6 6 -17 11 -25 11 -13 0 -63 34 -115 80 -45 39 -126
169 -146 235 -11 33 -29 77 -41 98 -19 32 -25 36 -36 25 -8 -7 -14 -25 -15
-38 -1 -47 16 -152 30 -179 5 -9 14 -41 21 -71 16 -76 61 -223 71 -235 4 -6
28 -60 52 -121 77 -192 132 -270 297 -419 90 -81 140 -176 180 -335 6 -25 20
-65 32 -90 11 -25 20 -56 20 -70 -1 -32 14 -65 54 -116 18 -22 46 -66 63 -97
50 -93 40 -185 -34 -325 -40 -76 -42 -97 -16 -178 10 -33 24 -84 31 -114 6
-30 30 -85 52 -123 46 -79 50 -128 20 -223 -11 -34 -23 -101 -26 -150 -4 -49
-11 -127 -16 -174 -5 -47 -15 -143 -20 -214 -10 -120 -10 -134 10 -200 12 -38
35 -96 51 -128 16 -32 29 -63 29 -70 0 -24 57 -133 79 -153 37 -33 80 -103 92
-150 14 -57 -3 -336 -41 -650 -31 -261 -38 -360 -39 -575 -1 -129 -6 -293 -12
-365 -13 -158 -13 -162 -4 -355 12 -263 110 -651 220 -870 29 -58 72 -154 95
-215 24 -60 50 -128 60 -150 9 -22 29 -81 44 -130 15 -50 42 -139 61 -200 71
-229 102 -401 125 -690 9 -115 9 -152 -3 -207 -22 -107 -17 -164 21 -223 37
-60 77 -182 131 -405 36 -145 41 -184 47 -325 3 -88 10 -191 15 -230 5 -38 14
-140 19 -225 6 -85 17 -182 25 -215 8 -33 19 -121 25 -195 6 -74 18 -171 27
-215 9 -46 17 -144 18 -230 1 -82 10 -190 18 -240 16 -92 32 -224 29 -237 -1
-4 5 -36 14 -70 18 -73 29 -129 42 -213 9 -57 18 -105 63 -350 11 -60 35 -157
54 -215 28 -89 45 -169 59 -275 6 -40 37 -136 55 -167 18 -30 41 -89 91 -234
10 -28 34 -82 53 -120 43 -83 59 -126 98 -264 17 -58 38 -125 48 -150 39 -94
62 -157 66 -178 2 -11 9 -30 15 -42 6 -12 14 -34 16 -48 5 -28 37 -118 74
-212 12 -30 30 -80 40 -110 36 -106 51 -142 108 -258 74 -149 123 -282 167
-452 19 -74 41 -157 49 -185 31 -105 35 -123 55 -235 36 -199 41 -224 56 -280
8 -30 15 -69 15 -88 0 -18 7 -65 15 -105 12 -61 24 -154 28 -219 1 -10 5 -18
9 -18 5 0 14 -11 20 -25 6 -14 17 -25 23 -25 17 0 46 -35 38 -45 -5 -5 0 -3
10 4 15 12 17 10 17 -22 0 -36 0 -36 48 -39 26 -2 45 -7 44 -11 -2 -5 7 -21
21 -35 13 -15 30 -37 36 -50 7 -12 16 -20 22 -17 5 4 9 2 9 -3 0 -6 24 -24 54
-41 30 -16 58 -36 62 -42 5 -8 3 -10 -7 -4 -17 10 14 -27 57 -69 85 -83 111
-106 121 -106 12 0 47 -50 36 -51 -5 0 2 -4 14 -9 19 -8 69 -93 65 -112 -1 -5
3 -8 8 -8 6 0 10 -9 10 -20 0 -11 4 -20 8 -20 5 0 15 -11 22 -25 7 -13 21 -27
30 -30 9 -3 67 -55 130 -115 63 -61 116 -110 117 -110 2 0 9 -5 16 -10 7 -6
30 -24 52 -40 67 -50 105 -84 105 -97 0 -7 5 -13 11 -13 6 0 37 -27 69 -61 37
-39 63 -58 71 -53 7 4 10 3 6 -3 -4 -6 8 -20 26 -32 75 -48 197 -164 197 -187
0 -16 93 -101 133 -122 22 -11 46 -28 55 -36 31 -29 77 -62 126 -90 27 -16 65
-42 85 -60 64 -55 103 -78 160 -96 57 -17 191 -96 191 -112 0 -5 4 -7 9 -4 5
3 19 -3 32 -13 13 -10 35 -21 49 -24 86 -20 120 -31 120 -38 0 -5 6 -6 14 -3
7 3 38 -6 68 -19 55 -25 116 -43 131 -39 4 1 7 -3 7 -8 0 -6 11 -10 25 -10 14
0 51 -9 82 -20 41 -14 83 -20 148 -20 49 0 126 -7 170 -15 44 -8 125 -14 180
-15 55 0 137 -5 181 -10 44 -6 100 -7 125 -2 24 4 69 4 99 -1 60 -9 449 -9
1009 -1 277 4 361 8 388 19 20 8 39 13 43 10 5 -3 11 -1 15 5 3 5 21 10 39 10
19 0 52 7 75 15 23 8 54 16 69 19 15 2 27 5 27 6 0 1 11 3 25 6 14 2 36 8 50
13 14 6 45 13 70 17 25 3 47 9 50 13 19 23 141 69 230 86 75 15 120 28 120 35
0 5 9 11 19 15 10 3 31 17 45 31 39 40 176 112 221 118 30 4 83 33 145 81 30
23 71 50 90 60 19 10 38 22 41 27 3 5 10 9 15 7 5 -1 14 8 20 20 6 11 14 18
17 14 4 -3 7 -1 7 5 0 31 139 124 203 136 27 5 59 22 123 64 78 52 119 77 126
77 4 0 18 9 30 20 13 10 23 17 23 15 0 -2 15 5 33 15 17 11 32 23 32 27 0 4 6
5 13 2 14 -5 107 53 107 67 0 5 6 9 13 9 7 0 22 8 33 18 10 10 44 34 74 54 30
21 68 53 83 73 27 34 186 145 208 145 6 0 7 5 4 11 -4 6 2 13 14 16 11 3 23
13 26 24 10 31 155 145 155 122 0 -15 54 45 71 80 11 21 26 40 34 44 8 3 15
11 15 18 0 17 37 48 49 41 5 -3 18 5 29 19 14 18 30 25 53 25 18 0 41 8 52 17
19 17 20 17 14 1 -5 -15 -1 -18 22 -18 16 0 34 -6 41 -14 6 -8 18 -12 26 -9
11 4 12 9 3 19 -8 10 -9 18 0 27 6 8 8 17 4 20 -3 4 1 7 10 7 11 0 17 -8 17
-25 0 -14 5 -25 10 -25 6 0 10 6 10 13 0 15 31 47 46 47 5 0 -2 -9 -16 -20
l-25 -20 28 0 c15 0 27 5 27 10 0 6 8 10 18 8 13 -2 17 3 15 26 -1 19 5 34 19
46 20 16 22 28 25 166 2 82 8 167 14 188 6 22 13 103 15 180 5 193 25 347 75
581 98 457 102 475 172 652 19 48 47 120 62 158 15 39 31 75 35 80 4 6 24 57
45 114 20 58 46 125 57 150 21 48 63 163 78 216 5 17 20 63 34 103 14 39 48
152 76 250 28 97 55 191 60 207 5 17 30 111 55 210 47 186 77 263 139 354 20
29 36 65 36 80 0 38 37 235 60 317 10 39 21 81 23 95 3 13 10 44 17 69 25 93
49 267 50 361 0 42 6 114 14 160 8 46 17 147 21 224 3 77 10 167 15 200 6 33
12 146 15 250 3 105 11 228 17 275 12 99 14 115 33 275 8 73 26 157 45 214 22
68 32 120 35 185 3 50 7 107 10 126 2 19 7 73 10 120 3 47 10 101 15 120 5 19
16 87 25 150 19 132 50 241 112 389 80 192 105 284 106 396 2 72 -1 100 -10
100 -25 0 -33 23 -36 110 -3 90 30 367 52 430 6 17 22 86 36 155 14 69 39 177
55 240 16 63 45 185 65 270 31 134 80 293 179 575 41 116 64 218 101 439 19
116 42 238 50 271 17 70 91 540 100 635 4 36 10 79 16 95 5 17 15 82 23 145 8
63 23 162 34 220 41 215 53 288 68 410 8 69 24 170 34 225 32 170 40 251 40
413 0 181 -18 303 -57 388 -14 32 -28 80 -31 106 -4 45 -3 48 19 48 14 0 58
-9 99 -21 99 -27 189 -89 265 -180 81 -97 117 -123 172 -125 25 -1 57 4 71 12
15 8 32 14 37 14 17 0 79 72 99 113 31 67 65 199 72 278 9 102 -6 181 -71 374
-63 189 -104 331 -111 388 -12 94 -33 205 -49 257 -26 89 -163 357 -248 487
-48 72 -87 136 -87 141 0 5 -7 22 -14 38 -21 40 -51 194 -71 354 -18 144 -42
208 -114 310 -17 25 -39 56 -49 70 -9 14 -21 30 -27 36 -5 6 -19 23 -30 38
-28 39 -50 64 -104 121 -104 110 -258 313 -305 401 -33 62 -158 253 -212 325
-74 96 -165 169 -379 304 -124 79 -151 99 -329 243 -69 56 -130 102 -135 102
-5 0 -11 4 -13 9 -1 5 -34 35 -73 66 -80 65 -169 141 -235 201 -141 126 -341
254 -398 254 -11 0 -24 5 -27 10 -3 6 -19 10 -35 10 -16 0 -32 5 -35 10 -4 6
-10 8 -15 5 -5 -3 -11 -1 -15 5 -3 5 -31 17 -63 26 -31 9 -62 23 -69 30 -8 7
-21 10 -30 7 -11 -4 -14 -3 -9 5 5 8 -1 12 -18 12 -14 0 -26 5 -26 10 0 6 -7
10 -15 10 -8 0 -15 3 -15 8 0 4 -35 35 -78 70 -43 34 -130 117 -193 183 -158
168 -155 166 -404 254 -71 25 -155 57 -185 70 -30 13 -104 31 -165 40 -117 17
-330 63 -355 77 -18 10 -294 112 -330 122 -14 4 -142 11 -285 16 -308 10 -694
28 -857 39 -99 7 -124 13 -167 36 -28 16 -51 32 -51 37 0 4 -3 7 -7 6 -13 -5
-84 53 -150 119 -62 63 -204 158 -253 170 -14 3 -34 11 -45 18 -11 6 -36 15
-55 19 -19 5 -53 12 -75 17 -22 4 -69 11 -105 14 -36 4 -85 13 -110 20 -115
35 -219 55 -388 74 -219 25 -252 25 -362 0z m-975 -4987 c43 -17 61 -18 129
-11 100 12 171 -1 251 -42 72 -38 103 -48 170 -54 226 -22 302 -43 400 -109
21 -14 46 -26 56 -26 10 0 55 -17 101 -37 74 -33 92 -37 168 -37 156 0 225 6
280 27 48 18 80 21 250 21 171 1 201 4 240 21 71 31 239 26 345 -10 67 -23
177 -56 270 -81 11 -3 54 -8 95 -10 61 -3 187 -18 235 -28 6 -2 35 -8 65 -14
30 -6 66 -13 80 -16 14 -2 70 -16 124 -31 55 -14 145 -31 200 -36 56 -5 128
-13 161 -19 33 -5 87 -12 120 -16 35 -4 82 -18 115 -34 30 -16 91 -45 135 -66
61 -28 96 -53 148 -106 37 -38 81 -89 96 -113 16 -25 49 -68 75 -96 25 -28 46
-57 46 -64 0 -8 9 -19 20 -25 11 -6 20 -17 20 -25 0 -8 4 -15 8 -15 4 0 25
-25 47 -57 45 -63 100 -123 113 -123 5 0 17 -9 27 -20 10 -11 24 -20 31 -20
16 0 90 -79 87 -91 -2 -5 1 -9 7 -9 5 0 25 -13 43 -30 19 -16 38 -26 42 -22 5
4 5 1 1 -5 -4 -7 -4 -13 1 -13 4 0 24 -14 43 -31 19 -17 54 -45 78 -62 23 -17
42 -35 42 -40 0 -5 11 -18 25 -29 14 -11 22 -24 19 -30 -4 -6 -2 -8 4 -4 6 3
13 2 17 -4 4 -6 11 -8 16 -5 5 4 9 1 9 -5 0 -5 17 -18 38 -28 20 -9 40 -21 43
-26 4 -5 12 -5 18 -2 6 4 14 0 17 -9 4 -9 13 -14 20 -11 7 3 16 0 20 -6 5 -7
2 -8 -6 -3 -9 5 -11 4 -6 -3 4 -7 15 -12 24 -12 10 0 33 -14 51 -31 18 -16 40
-28 47 -25 7 3 19 0 26 -7 7 -7 29 -20 49 -30 20 -10 46 -28 57 -40 145 -150
192 -196 210 -206 11 -6 31 -31 43 -56 22 -44 22 -45 4 -59 -11 -8 -28 -12
-37 -11 -11 2 -16 0 -12 -6 3 -6 7 -20 9 -32 2 -12 11 -47 21 -77 10 -30 18
-57 19 -60 0 -3 7 -16 14 -29 9 -17 10 -21 1 -16 -9 6 -9 3 -1 -13 6 -12 15
-23 20 -26 5 -4 7 -15 4 -26 -3 -11 -10 -17 -16 -13 -6 3 -7 1 -3 -6 4 -6 3
-17 -2 -24 -5 -7 -10 -19 -10 -27 -1 -8 -3 -32 -6 -52 -2 -21 0 -38 5 -38 5 0
9 -9 9 -20 0 -11 3 -20 8 -20 4 0 6 -19 4 -41 -3 -23 1 -58 8 -79 10 -31 10
-42 -4 -68 -9 -18 -22 -32 -29 -33 -9 0 -9 -2 0 -6 10 -3 10 -7 0 -18 -7 -7
-15 -11 -19 -8 -9 5 -11 -10 -8 -47 1 -14 8 -29 16 -33 8 -4 14 -17 14 -27 0
-11 5 -20 10 -20 6 0 10 -5 10 -10 0 -6 9 -24 21 -39 12 -16 22 -40 22 -54 1
-14 5 -23 8 -21 6 3 18 -18 21 -36 1 -3 8 -10 15 -16 8 -5 13 -21 11 -35 -2
-13 4 -31 12 -39 9 -8 29 -42 45 -75 16 -33 39 -77 52 -97 13 -21 23 -44 23
-52 0 -8 6 -16 14 -19 8 -3 38 -54 67 -114 29 -59 66 -127 81 -149 49 -72 126
-229 153 -310 15 -43 41 -97 59 -119 18 -22 40 -57 50 -77 9 -21 19 -38 22
-38 3 0 2 6 -2 13 -4 7 -3 9 2 4 5 -5 9 -18 9 -30 0 -12 5 -22 12 -22 18 0 63
-65 63 -90 0 -12 14 -64 30 -115 23 -73 30 -111 30 -177 0 -60 4 -83 13 -83 9
0 9 -2 0 -8 -7 -4 -12 -16 -11 -27 0 -11 -3 -28 -7 -37 -4 -10 -3 -18 3 -18 5
0 12 -27 14 -60 2 -34 11 -67 20 -77 8 -10 13 -23 11 -30 -2 -6 5 -31 15 -55
43 -95 46 -110 43 -224 -2 -82 1 -114 9 -114 7 0 9 -7 6 -17 -4 -9 -1 -20 6
-24 8 -5 13 -40 15 -100 2 -58 8 -96 15 -100 7 -5 11 -25 9 -48 -1 -23 1 -41
6 -41 4 0 9 -35 11 -78 1 -42 9 -97 17 -122 13 -42 24 -98 45 -231 10 -68 4
-304 -10 -374 -5 -27 -12 -93 -14 -145 -5 -104 -10 -138 -26 -154 -12 -12 -14
-96 -1 -96 4 0 4 -24 -1 -52 -5 -29 -10 -132 -12 -228 -2 -121 -7 -184 -16
-205 -13 -29 -16 -90 -21 -443 -1 -81 -6 -136 -13 -141 -8 -6 -9 -53 -4 -152
5 -122 4 -148 -10 -174 -9 -16 -15 -37 -13 -45 2 -8 0 -12 -4 -8 -11 11 -35
-18 -35 -41 0 -11 5 -23 10 -26 15 -9 12 -51 -5 -65 -8 -6 -18 -9 -22 -7 -5 3
-7 -13 -5 -35 3 -22 0 -43 -6 -47 -5 -3 -12 -58 -14 -122 -5 -125 -9 -139 -38
-139 -27 0 -33 -16 -13 -36 17 -17 17 -17 -5 -12 -16 4 -25 1 -32 -12 -15 -27
-12 -32 11 -25 19 6 20 5 9 -15 -9 -16 -9 -25 1 -36 15 -18 15 -88 1 -117 -6
-12 -13 -38 -16 -57 -8 -46 -40 -105 -57 -105 -11 0 -15 -21 -17 -87 -1 -49
-7 -88 -11 -88 -5 0 -14 -15 -21 -32 -6 -18 -16 -41 -21 -51 -8 -15 -21 -101
-22 -144 0 -7 -4 -13 -9 -13 -5 0 -6 -4 -3 -10 3 -5 2 -10 -2 -10 -10 0 -12
-10 -17 -105 -3 -38 -7 -95 -11 -127 -4 -37 -2 -59 5 -63 6 -4 8 -14 5 -24
-10 -25 -26 -103 -28 -138 -2 -18 -8 -38 -15 -45 -7 -7 -12 -19 -12 -27 0 -8
-6 -22 -14 -30 -8 -9 -16 -37 -19 -64 -3 -26 -9 -51 -12 -57 -3 -5 -6 -25 -7
-45 -1 -19 -5 -35 -9 -35 -5 0 -6 -7 -3 -15 4 -8 1 -15 -6 -15 -9 0 -10 -3 -1
-14 11 -13 5 -46 -11 -57 -5 -3 -10 -16 -13 -29 -2 -12 -11 -30 -19 -39 -8 -9
-14 -19 -14 -24 0 -4 -4 -35 -8 -70 -4 -34 -6 -72 -5 -84 1 -13 -2 -23 -8 -23
-6 0 -8 -28 -6 -72 2 -39 1 -76 -3 -82 -3 -6 -7 -16 -8 -22 -1 -6 -10 -28 -19
-48 -9 -20 -15 -43 -11 -51 3 -9 2 -13 -4 -10 -6 4 -10 -7 -10 -25 0 -17 -6
-43 -13 -58 -8 -15 -15 -47 -16 -72 -1 -25 -9 -50 -16 -56 -8 -6 -12 -14 -8
-17 3 -4 2 -7 -4 -7 -6 0 -13 -9 -16 -21 -3 -12 -10 -18 -17 -14 -7 4 -16 -5
-23 -24 -6 -17 -15 -31 -19 -31 -4 0 -8 -8 -8 -18 0 -10 -6 -24 -12 -30 -7 -7
-13 -18 -13 -25 -1 -7 -6 -11 -13 -10 -7 2 -9 -4 -5 -14 4 -10 2 -14 -4 -10
-14 9 -52 -51 -59 -90 -3 -15 -9 -41 -14 -58 -5 -16 -11 -48 -13 -70 -3 -28
-9 -41 -21 -43 -12 -3 -15 -9 -11 -20 3 -9 3 -13 -1 -9 -10 10 -33 -39 -28
-60 3 -10 -4 -36 -16 -58 -11 -21 -20 -45 -20 -51 0 -6 -8 -11 -17 -10 -10 0
-17 -5 -15 -11 1 -7 -5 -13 -13 -13 -8 0 -15 -8 -15 -18 0 -10 -4 -22 -10 -28
-5 -5 -11 -20 -13 -33 -2 -13 -12 -30 -22 -37 -10 -8 -15 -14 -11 -14 4 0 0
-7 -8 -16 -9 -8 -16 -24 -16 -34 0 -10 -4 -20 -9 -22 -5 -1 -12 -19 -15 -38
-3 -19 -13 -40 -22 -47 -10 -7 -14 -13 -8 -13 5 0 3 -4 -5 -9 -8 -5 -16 -18
-17 -28 -8 -57 -17 -86 -29 -101 -54 -65 -76 -99 -91 -140 -10 -26 -28 -61
-41 -79 -12 -17 -23 -35 -23 -39 0 -12 -59 -64 -72 -64 -19 0 -79 -60 -73 -71
4 -5 2 -9 -3 -9 -5 0 -9 -14 -10 -31 0 -16 -12 -49 -25 -72 -32 -53 -92 -118
-102 -109 -5 4 -5 -2 -1 -13 4 -11 4 -16 0 -12 -4 4 -22 -2 -39 -13 -18 -11
-40 -17 -49 -14 -28 11 -69 -14 -121 -73 -27 -32 -60 -68 -72 -81 -13 -12 -23
-28 -23 -33 0 -6 -9 -22 -20 -36 -11 -14 -20 -22 -20 -17 0 18 -27 -33 -39
-73 -7 -26 -18 -43 -27 -43 -8 0 -12 -4 -9 -10 4 -7 -3 -7 -20 0 -21 8 -36 6
-70 -9 -44 -19 -66 -41 -43 -41 9 -1 9 -3 -2 -10 -9 -4 -31 -5 -50 -1 -27 6
-41 3 -62 -13 -16 -11 -28 -26 -28 -33 0 -17 -17 -17 -23 0 -4 8 -6 7 -7 -3
-2 -15 -150 -152 -245 -227 -62 -49 -145 -131 -145 -143 0 -5 -20 -30 -45 -57
-25 -26 -45 -52 -45 -59 0 -18 -68 -110 -135 -182 -83 -90 -94 -101 -148 -149
-26 -22 -47 -46 -47 -52 0 -12 -105 -81 -124 -81 -7 0 -24 -8 -37 -19 -68 -52
-180 -121 -199 -121 -35 0 -83 -26 -130 -70 -79 -75 -124 -89 -301 -95 -54 -2
-99 -9 -118 -19 -17 -9 -34 -17 -38 -17 -5 -1 -19 -6 -33 -11 -39 -15 -60 -18
-60 -7 0 5 -6 9 -12 9 -7 0 -39 14 -71 31 -64 34 -101 33 -112 -1 -6 -18 -17
-24 -37 -21 -4 0 -9 -7 -12 -17 -7 -22 -72 -28 -83 -8 -4 8 -19 16 -33 18 -18
2 -28 12 -35 36 -5 17 -15 32 -21 32 -7 0 -18 16 -24 35 -10 31 -14 34 -27 23
-9 -7 -19 -13 -22 -13 -3 0 -5 -3 -4 -7 2 -4 -3 -5 -11 -2 -8 3 -18 -7 -26
-25 -9 -23 -21 -32 -45 -37 -19 -3 -36 -12 -39 -20 -4 -11 -10 -12 -31 -2 -22
10 -28 9 -35 -3 -8 -12 -13 -12 -31 -1 -11 7 -23 11 -26 8 -3 -3 -18 1 -33 9
-15 8 -30 11 -34 8 -3 -4 -6 4 -6 16 0 17 -4 21 -16 17 -8 -3 -12 -2 -9 3 3 5
-4 16 -16 25 -20 14 -25 13 -60 -7 -22 -12 -39 -27 -39 -33 0 -20 -27 -23 -47
-6 -23 21 -48 36 -90 58 -18 9 -33 20 -33 24 0 15 -60 30 -83 21 -12 -5 -37
-23 -55 -40 -28 -27 -38 -31 -78 -28 -25 1 -49 9 -54 16 -4 8 -26 15 -48 17
-23 1 -50 7 -60 13 -11 6 -23 7 -27 3 -3 -4 -5 0 -3 8 3 15 -29 21 -48 7 -15
-10 -44 2 -44 19 0 17 -79 -36 -113 -75 -22 -27 -28 -29 -88 -26 -35 2 -82 6
-104 10 -48 8 -95 -8 -96 -32 0 -13 -3 -12 -10 6 -7 18 -6 27 3 33 10 6 10 8
-2 9 -42 2 -61 6 -67 14 -5 4 1 5 12 1 16 -6 17 -5 8 5 -10 10 -17 9 -33 -6
-20 -18 -21 -18 -43 2 -22 20 -57 20 -57 1 0 -6 -3 -9 -6 -5 -4 3 -14 -4 -24
-16 -15 -18 -22 -20 -41 -11 -13 6 -42 10 -64 8 -118 -7 -146 -4 -196 19 -34
17 -96 20 -105 6 -2 -3 -23 -2 -46 3 -24 5 -53 10 -65 11 -13 1 -23 5 -23 10
0 4 -6 7 -13 7 -22 0 -134 117 -153 159 -21 47 -56 75 -113 91 -27 7 -59 28
-89 58 -27 26 -64 58 -83 72 -19 14 -50 42 -69 64 -19 21 -69 73 -111 115 -41
42 -86 96 -100 121 -25 46 -43 69 -115 150 -22 25 -56 63 -75 85 -52 61 -100
106 -108 101 -3 -3 -17 11 -30 29 -13 19 -31 37 -40 40 -16 5 -61 67 -61 84 0
5 -9 13 -20 16 -11 3 -20 9 -20 13 0 12 -43 57 -72 75 -16 10 -28 25 -28 34 0
9 -3 13 -6 10 -11 -10 -45 13 -38 25 4 7 3 8 -5 4 -7 -5 -15 3 -22 22 -6 17
-18 32 -27 34 -11 3 -22 25 -30 63 -17 73 -31 95 -60 95 -33 0 -162 136 -162
171 0 10 -7 25 -16 33 -9 9 -17 28 -19 42 -1 15 -8 30 -15 34 -7 4 -10 13 -6
19 8 12 -18 57 -48 83 -10 10 -15 18 -10 18 5 0 -11 14 -36 30 -25 16 -40 30
-34 30 8 0 7 20 -2 68 -7 37 -9 71 -4 76 12 12 1 36 -16 36 -8 0 -14 4 -14 8
0 5 -16 16 -35 25 -19 9 -35 23 -35 31 0 8 -12 25 -28 38 -32 27 -76 86 -80
108 -1 8 -18 30 -37 48 -19 18 -35 34 -35 37 0 12 -34 43 -42 39 -4 -3 -8 0
-8 5 0 16 0 17 -10 51 -6 21 -5 28 2 24 7 -4 8 2 2 17 -4 13 -8 39 -8 58 -1
19 -7 36 -14 39 -7 2 -10 7 -8 11 2 3 0 29 -5 56 -9 46 -24 69 -40 59 -4 -2
-12 11 -19 30 -14 42 -56 87 -76 79 -8 -3 -14 -1 -14 5 0 6 4 12 9 14 5 2 1
20 -9 41 -10 21 -19 41 -19 45 -1 4 -8 15 -16 25 -8 9 -15 26 -15 37 0 10 -4
21 -9 24 -5 3 -7 14 -4 25 2 10 -2 25 -11 33 -8 9 -12 18 -9 22 4 3 1 6 -5 6
-7 0 -12 13 -12 29 0 20 -6 30 -20 34 -12 3 -20 14 -20 27 0 17 -4 21 -17 16
-16 -6 -33 8 -33 28 0 6 7 1 15 -10 8 -10 15 -14 15 -8 0 6 -13 26 -28 43 -15
18 -29 46 -30 64 -2 17 -8 34 -14 38 -6 4 -12 15 -13 26 -5 58 -19 109 -33
119 -8 6 -17 33 -20 62 -2 28 -8 49 -13 46 -8 -5 -10 0 -9 21 0 3 -7 19 -15
35 -8 16 -15 31 -13 32 6 9 -29 131 -40 135 -7 3 -10 13 -7 24 5 15 2 18 -12
13 -12 -4 -14 -3 -5 3 15 11 11 55 -11 107 -10 21 -17 47 -17 56 0 26 -11 51
-20 45 -4 -2 -5 6 -3 20 3 13 -1 41 -8 62 -7 21 -14 56 -15 78 -1 22 -3 40 -4
40 -1 0 -4 14 -6 30 -3 17 -16 38 -29 48 -14 10 -25 24 -25 31 0 7 -9 32 -21
56 -17 35 -21 61 -20 133 1 75 -1 88 -13 84 -12 -5 -13 -1 -7 16 9 26 5 42
-20 79 -11 14 -19 34 -19 43 0 9 -4 14 -9 10 -10 -6 -23 25 -26 65 -5 56 -29
157 -44 185 -8 17 -14 33 -13 38 1 4 -2 7 -6 7 -5 0 -9 6 -10 13 -1 16 -11 85
-17 119 -2 15 0 30 5 33 11 7 10 65 -1 65 -5 0 -8 15 -7 33 1 19 -6 49 -15 67
-10 18 -17 41 -17 51 0 10 -4 20 -9 23 -13 8 -24 71 -26 149 -1 37 -5 71 -9
74 -3 3 -6 0 -6 -7 0 -7 -3 -11 -6 -7 -3 3 -5 7 -3 9 1 1 -3 14 -10 26 -19 35
-21 89 -5 103 10 8 14 8 14 0 0 -6 4 -11 8 -11 5 0 9 7 9 15 0 9 -10 15 -24
15 -17 0 -23 6 -23 23 0 37 -11 66 -24 61 -12 -4 -53 91 -48 110 2 5 -2 22 -7
37 -8 23 -7 29 5 29 7 0 14 5 14 10 0 6 -4 10 -8 10 -12 0 -34 49 -27 61 3 4
-1 42 -10 83 -8 41 -15 97 -15 123 0 26 -7 73 -15 103 -8 30 -17 88 -20 129
-2 40 -9 79 -15 86 -7 8 -7 15 -1 19 5 4 4 27 -5 60 -8 29 -12 81 -10 117 2
35 0 69 -4 74 -17 22 -26 106 -21 200 1 28 0 73 -4 100 -15 117 -20 241 -14
320 10 127 9 478 -1 494 -5 8 -4 25 1 38 5 13 11 95 14 181 3 86 7 229 10 316
3 87 8 162 10 166 5 7 45 298 50 365 5 59 37 195 45 190 3 -2 4 9 2 26 -3 17
0 29 7 29 6 0 11 19 11 47 0 29 6 53 16 64 9 10 17 29 18 42 0 14 4 23 9 20 4
-2 8 12 9 31 4 79 5 93 16 126 6 19 13 64 15 100 2 52 10 78 35 123 21 38 32
70 32 97 0 23 9 62 19 88 30 73 34 85 38 112 2 14 11 49 19 79 8 29 13 60 10
67 -3 8 -2 14 3 14 5 0 12 17 16 38 4 20 11 42 15 47 5 6 11 35 14 65 7 73 14
102 24 109 5 3 12 16 16 29 4 12 14 22 22 22 8 0 13 4 9 9 -3 5 -1 12 4 15 5
3 19 25 31 48 12 24 27 48 34 53 6 6 29 32 49 59 26 34 35 55 31 69 -4 11 -2
17 3 14 6 -4 15 12 22 33 6 22 16 40 22 40 6 0 8 4 5 9 -3 5 1 12 10 15 8 3
12 10 9 16 -3 6 0 13 8 16 8 3 18 21 21 40 4 19 10 34 14 34 4 0 7 21 7 48 0
45 37 150 57 163 5 3 10 16 11 27 1 12 5 22 10 22 4 0 6 4 3 9 -4 5 -1 22 6
38 6 15 12 48 13 73 0 25 5 52 11 60 5 8 9 22 10 30 2 42 18 100 27 100 7 0 7
4 -1 12 -13 13 -17 52 -4 45 11 -8 11 43 0 89 -7 31 -7 48 3 65 8 14 13 60 13
112 1 64 5 90 15 96 8 5 11 16 8 26 -4 9 -3 14 1 11 4 -2 7 19 7 48 1 28 9 70
18 94 17 43 23 122 10 122 -9 0 1 155 14 235 11 61 62 176 76 168 6 -3 7 -1 3
6 -8 13 38 165 57 187 7 8 17 21 24 28 7 8 9 17 5 21 -4 5 -2 5 5 1 16 -9 46
49 38 73 -3 11 5 24 25 39 16 12 32 22 35 22 12 0 34 28 27 35 -12 12 22 0 36
-12 7 -7 19 -13 25 -12 9 0 8 2 0 6 -7 2 -13 9 -13 14 0 4 7 6 16 2 13 -5 15
-2 9 15 -6 21 6 28 37 23 4 0 5 6 2 14 -3 7 3 22 15 31 11 10 17 22 14 27 -3
6 -1 7 5 3 6 -3 13 -2 17 4 3 5 1 10 -5 10 -6 0 -8 5 -5 10 4 6 11 8 16 5 5
-4 10 13 10 37 3 74 4 78 15 86 7 4 13 15 15 25 2 10 8 17 13 17 5 -1 18 12
28 29 11 17 26 31 34 31 8 0 14 5 14 10 0 14 27 12 34 -2 3 -10 8 -8 16 4 6 9
17 15 25 12 8 -4 16 -1 16 5 5 38 22 65 68 106 60 53 83 76 101 104 35 55 73
96 87 96 20 0 53 42 53 69 1 27 26 73 37 66 4 -3 9 7 11 22 2 18 12 30 33 38
16 7 29 16 29 20 0 11 78 90 90 90 5 0 14 9 20 20 6 11 22 23 35 26 14 3 23 9
21 13 -3 4 13 8 36 8 49 2 110 22 103 33 -3 5 9 11 27 15 18 4 49 17 68 30 19
13 89 43 155 66 66 23 124 46 130 50 5 5 20 9 34 9 13 0 43 11 65 24 23 13 59
27 80 30 21 4 41 8 45 11 4 2 30 7 57 10 49 6 110 22 129 34 6 3 51 6 102 7
51 0 98 5 105 11 7 5 33 11 58 12 25 2 50 7 57 13 7 5 17 7 22 4 5 -4 12 -2
15 3 3 5 25 9 49 10 23 0 67 4 97 9 65 11 79 9 145 -16z"/>
<path d="M8443 18727 c-17 -7 -35 -15 -39 -19 -4 -5 -16 -8 -26 -8 -10 0 -18
-5 -18 -11 0 -5 -4 -8 -9 -5 -5 3 -14 -1 -21 -9 -6 -8 -28 -19 -48 -26 -20 -6
-47 -18 -59 -25 -13 -8 -23 -12 -23 -9 0 4 -12 -2 -27 -13 -16 -11 -50 -30
-77 -43 -49 -23 -180 -115 -265 -187 -25 -20 -56 -44 -70 -53 -14 -9 -61 -50
-103 -90 -76 -74 -208 -257 -208 -289 0 -9 -3 -20 -7 -24 -4 -4 -12 -27 -19
-52 -9 -36 -8 -49 4 -72 8 -15 15 -46 16 -69 3 -52 6 -55 50 -55 20 0 36 -4
36 -9 0 -18 21 -8 30 14 5 12 9 19 9 15 1 -6 23 1 106 37 34 14 105 35 119 34
11 -1 26 24 31 53 8 37 11 39 164 74 36 8 70 19 78 25 7 6 13 8 13 3 0 -14 51
48 61 74 5 12 15 22 22 22 8 0 19 11 25 24 14 32 106 61 164 52 53 -8 75 -11
163 -21 39 -4 79 -9 89 -11 76 -14 342 -66 391 -76 33 -7 63 -12 67 -10 18 5
355 -59 433 -83 98 -30 224 -75 240 -86 6 -4 46 -15 90 -24 44 -10 100 -27
125 -37 54 -24 209 -66 305 -83 39 -7 98 -18 132 -24 34 -6 84 -9 110 -5 26 3
58 5 70 5 28 -1 52 37 32 50 -11 6 -10 9 4 15 23 8 21 19 -5 44 -13 12 -17 20
-9 20 11 0 10 5 -1 23 -13 19 -31 81 -33 113 0 6 -5 18 -11 25 -20 25 -41 73
-48 109 -3 20 -13 46 -22 59 -22 30 -89 61 -136 61 -20 0 -76 13 -125 29 -158
52 -200 61 -286 61 -69 0 -104 6 -177 30 -60 21 -107 30 -139 29 -36 -2 -62 5
-112 30 -44 22 -89 35 -144 42 -116 15 -220 38 -241 54 -11 8 -26 15 -35 15
-9 0 -25 11 -35 25 -10 14 -24 25 -31 25 -7 0 -13 4 -13 9 0 5 -24 9 -52 9
-29 -1 -86 2 -125 5 -75 6 -101 19 -178 88 -16 15 -40 30 -52 33 -18 6 -21 12
-17 34 11 52 -63 84 -133 59z"/>
<path d="M15396 18591 c2 -2 -4 -13 -13 -24 -10 -10 -17 -22 -15 -25 1 -3 -3
-7 -10 -8 -7 -1 -31 -6 -53 -12 -22 -6 -71 -11 -109 -11 -82 0 -99 -13 -100
-69 -2 -73 -28 -82 -246 -88 -69 -2 -141 -4 -160 -5 -35 -2 -98 2 -351 22
-124 11 -141 10 -190 -7 -61 -21 -59 -20 -189 -28 -52 -3 -116 -8 -142 -12
-26 -3 -114 -9 -196 -13 l-149 -7 -64 -39 c-35 -21 -80 -54 -99 -72 -19 -18
-38 -33 -43 -33 -20 0 -87 -55 -83 -67 3 -8 1 -11 -4 -8 -6 4 -17 -1 -26 -9
-8 -9 -13 -16 -9 -16 3 0 0 -10 -6 -22 -9 -18 -9 -21 1 -11 7 6 19 9 28 6 11
-5 13 -3 7 7 -6 10 -4 12 8 7 10 -3 17 -2 17 3 0 5 7 7 15 4 9 -4 15 0 15 10
0 11 9 14 35 12 19 -1 37 2 39 8 3 6 2 -5 -1 -24 -8 -46 -25 -80 -31 -61 -3 8
-10 1 -18 -19 -8 -17 -12 -35 -9 -40 6 -9 -51 -61 -59 -53 -3 4 -6 1 -6 -5 0
-7 0 -15 -1 -19 0 -5 -11 -14 -25 -21 -27 -14 -33 -57 -11 -84 15 -20 75 -28
105 -15 18 8 25 8 33 -4 7 -11 9 -11 9 -1 0 11 10 12 43 6 54 -9 86 -7 104 8
9 7 51 11 111 11 92 -1 143 7 367 55 50 11 149 27 220 37 165 22 160 21 290
45 352 64 389 69 533 75 48 2 140 12 205 21 110 16 123 16 170 1 29 -9 93 -18
142 -21 50 -3 143 -15 208 -26 66 -11 148 -20 183 -20 55 0 69 -4 89 -24 13
-13 27 -35 30 -49 5 -18 19 -29 53 -41 72 -26 152 -65 152 -74 0 -5 11 -15 25
-22 13 -7 54 -41 91 -76 37 -35 69 -62 72 -59 3 2 10 -2 16 -11 6 -8 18 -16
26 -18 22 -4 62 -24 87 -42 20 -14 23 -14 41 3 10 10 27 23 38 29 27 16 57
101 51 147 -3 21 -15 46 -26 57 -12 10 -24 34 -26 54 -3 20 -11 46 -17 58 -30
52 -141 209 -166 235 -90 92 -191 170 -287 222 -42 23 -64 36 -105 62 -14 8
-41 21 -60 29 -19 7 -109 49 -199 93 -162 78 -165 79 -262 86 -54 3 -96 4 -93
2z"/>
<path d="M8605 17340 c-3 -5 -21 -10 -38 -10 -115 -1 -273 -92 -336 -194 -26
-42 -26 -42 11 -51 21 -5 29 -3 34 9 3 9 10 13 15 11 5 -3 19 1 31 9 13 8 53
27 91 41 37 15 67 32 67 38 0 6 3 8 6 4 4 -3 21 8 39 26 18 18 51 45 74 61 45
33 48 38 27 55 -10 8 -16 9 -21 1z"/>
<path d="M15340 17295 c0 -8 12 -22 28 -32 15 -10 57 -41 93 -70 81 -65 217
-133 264 -133 31 0 35 3 35 25 0 15 -15 38 -41 64 -44 41 -203 127 -254 135
-16 3 -46 10 -65 16 -47 14 -60 13 -60 -5z"/>
<path d="M9070 17161 c-8 -5 -49 -14 -90 -21 -184 -30 -527 -127 -565 -160
-11 -10 -43 -32 -71 -49 -47 -29 -67 -52 -132 -162 -12 -20 -22 -42 -22 -50 0
-7 28 -39 62 -71 61 -57 126 -88 182 -88 14 0 26 -4 26 -10 0 -5 5 -10 10 -10
6 0 24 -9 39 -21 22 -16 36 -19 60 -14 17 4 31 10 31 15 0 4 10 11 23 14 33 9
67 39 72 64 2 12 7 27 11 34 4 6 6 32 5 58 -2 58 19 110 61 144 18 15 41 34
50 41 35 29 98 55 131 55 40 0 56 -20 132 -165 69 -131 129 -212 176 -235 34
-18 51 -20 117 -14 42 3 102 15 132 26 30 11 93 21 140 24 132 7 158 16 184
66 7 12 29 53 49 90 20 37 47 98 61 135 13 38 27 75 30 84 11 26 58 47 102 44
37 -3 137 -56 199 -104 11 -9 36 -25 55 -35 19 -11 46 -33 60 -50 41 -49 72
-76 89 -76 15 0 48 -56 43 -72 -1 -5 16 -8 38 -8 34 0 40 3 40 21 0 30 -41
109 -61 120 -10 5 -24 15 -32 24 -24 24 -117 75 -136 75 -10 0 -28 9 -41 20
-13 11 -27 20 -31 20 -5 0 -30 13 -56 28 -27 16 -58 28 -70 27 -12 -1 -20 2
-17 6 4 7 -23 20 -56 25 -8 2 -19 9 -25 17 -17 23 -87 62 -140 79 -100 32
-173 42 -330 43 -88 1 -176 7 -195 14 -40 13 -317 15 -340 2z m502 -118 c21
-20 28 -36 28 -62 0 -42 -7 -54 -37 -70 -34 -18 -60 -13 -82 15 -42 54 -12
135 53 143 6 0 23 -11 38 -26z"/>
<path d="M14507 17164 c-3 -4 -91 -8 -194 -9 l-188 -2 -112 -41 c-129 -47
-209 -83 -272 -124 -25 -15 -53 -28 -62 -28 -9 0 -20 -10 -24 -22 -3 -13 -9
-18 -11 -11 -4 8 -16 6 -42 -7 -20 -10 -66 -32 -102 -49 -77 -36 -117 -70
-126 -105 -5 -22 -3 -26 17 -28 49 -3 65 3 99 37 41 41 122 104 167 130 18 10
29 23 26 29 -4 5 1 7 11 3 20 -8 60 15 48 28 -4 5 -1 5 7 0 7 -4 16 -4 20 1
11 17 116 46 151 42 40 -3 48 -17 136 -220 78 -183 110 -211 251 -227 43 -5
98 -17 123 -27 32 -12 74 -18 143 -18 l99 -1 45 50 c61 67 127 170 170 263 19
42 42 85 50 95 38 41 142 6 275 -92 55 -41 69 -57 78 -91 8 -30 8 -45 0 -55
-20 -24 -37 -125 -20 -125 6 0 9 -4 6 -9 -6 -9 59 -31 91 -31 11 0 23 -3 26
-7 4 -3 30 -7 59 -8 51 -2 53 -1 107 54 30 31 59 55 63 54 4 -2 8 1 8 5 0 5
18 14 40 21 57 17 100 56 100 92 0 69 -58 142 -174 219 -40 26 -79 54 -87 62
-8 7 -30 14 -49 14 -78 3 -117 9 -165 27 -52 20 -202 64 -245 72 -151 29 -525
56 -543 39z m-31 -140 c17 -31 17 -37 4 -62 -13 -22 -24 -28 -57 -30 -38 -3
-43 0 -58 28 -18 34 -14 56 16 94 17 22 23 23 48 15 16 -6 36 -25 47 -45z"/>
<path d="M12710 13703 c-84 -30 -220 -133 -220 -168 0 -43 140 -19 270 45 31
16 76 33 100 40 54 14 93 37 85 51 -4 5 -24 18 -45 29 -47 24 -126 25 -190 3z"/>
<path d="M11000 13650 c-57 -27 -56 -25 -36 -54 10 -16 29 -27 53 -32 21 -3
71 -15 112 -25 78 -20 225 -26 250 -10 24 15 -25 78 -83 108 -41 21 -68 26
-150 30 -87 3 -107 1 -146 -17z"/>
<path d="M9816 11516 l-29 -13 43 -47 c24 -25 55 -49 69 -53 14 -3 31 -9 36
-14 24 -18 391 -33 467 -19 29 6 55 15 56 20 2 6 18 9 35 9 l32 -1 -30 -8
c-23 -6 -15 -8 37 -9 36 0 74 -4 84 -8 11 -4 15 -3 10 5 -3 6 -2 14 4 17 6 4
9 3 8 -2 -4 -10 6 -13 40 -12 19 1 22 3 7 6 -11 2 -30 9 -42 15 -12 6 -29 8
-38 4 -9 -3 -26 -1 -38 6 -12 6 -53 12 -91 14 -50 2 -72 6 -78 18 -5 8 -15 13
-23 10 -9 -4 -15 0 -15 10 0 9 -4 16 -10 16 -5 0 -10 -5 -10 -11 0 -6 -6 -9
-12 -6 -7 2 -12 9 -11 15 4 16 -73 28 -237 37 -58 3 -134 8 -170 10 -40 2 -76
-1 -94 -9z"/>
<path d="M13947 11473 c-3 -3 -89 -6 -190 -8 -101 -1 -189 -5 -194 -8 -5 -3
-20 -8 -34 -10 -63 -12 -107 -29 -113 -43 -3 -8 -10 -13 -15 -9 -5 3 -12 1
-16 -5 -3 -5 -23 -8 -43 -5 -29 3 -33 2 -19 -6 10 -6 40 -11 65 -11 26 0 69
-6 96 -14 27 -8 86 -14 130 -15 45 0 100 -5 124 -10 44 -10 91 -1 190 36 92
33 132 88 75 101 -16 3 -33 7 -40 9 -6 2 -13 1 -16 -2z"/>
<path d="M10845 11423 c-11 -3 -39 -12 -63 -20 -58 -22 -38 -33 77 -43 47 -5
102 -11 121 -15 19 -3 64 -6 100 -6 36 0 83 -5 105 -11 49 -14 56 -14 125 -4
43 6 51 10 35 16 -11 5 -34 9 -52 9 -18 1 -53 8 -79 17 -59 20 -140 35 -183
34 -18 0 -47 4 -65 9 -38 13 -94 19 -121 14z"/>
<path d="M12677 11376 c-7 -6 -21 -12 -32 -13 -11 -1 -40 -4 -65 -7 -94 -9
-140 -19 -140 -30 0 -6 -5 -4 -10 4 -8 12 -12 11 -30 -8 l-21 -22 23 -1 c13
-1 26 -1 29 -1 3 1 45 3 95 7 90 6 233 25 312 43 26 6 59 6 80 1 63 -15 158
-11 172 6 7 9 19 14 26 11 7 -3 16 -1 19 4 10 17 -34 20 -239 19 -136 -1 -211
-6 -219 -13z"/>
<path d="M11598 11288 c5 -5 34 -9 66 -9 38 -1 62 -6 73 -17 13 -13 38 -16
122 -17 120 0 172 5 165 17 -3 5 -11 8 -17 7 -7 -1 -19 -1 -27 0 -13 1 -13 2
0 11 19 12 22 12 -208 15 -106 1 -179 -2 -174 -7z"/>
<path d="M16490 8986 c0 -9 -4 -17 -10 -17 -5 -1 -14 -3 -20 -4 -5 -1 -19 -3
-30 -4 -11 0 -19 -4 -18 -8 1 -5 -2 -21 -7 -37 -5 -19 -4 -36 4 -49 8 -13 9
-22 3 -26 -11 -6 -9 -62 3 -143 5 -33 4 -52 -5 -63 -9 -10 -10 -34 -6 -78 8
-67 1 -101 -18 -94 -8 3 -11 -5 -8 -24 2 -16 9 -29 14 -29 5 0 7 -4 4 -8 -3
-5 0 -25 6 -45 13 -43 33 -47 71 -14 25 21 39 64 50 157 3 19 15 64 27 100 22
60 22 69 10 140 -6 41 -13 83 -14 92 -4 30 -40 88 -53 84 -7 -3 -15 -1 -18 4
-4 6 1 10 9 10 10 0 13 6 10 15 -4 8 -1 22 5 29 8 10 9 16 1 21 -5 3 -10 -1
-10 -9z"/>
<path d="M6975 7341 c-16 -10 -100 -85 -185 -167 -118 -113 -180 -164 -255
-210 -127 -78 -150 -90 -565 -309 -102 -54 -241 -129 -310 -168 -117 -66 -194
-108 -400 -219 -86 -47 -186 -82 -520 -184 -597 -182 -1611 -501 -2205 -694
-115 -37 -325 -105 -465 -150 -233 -74 -504 -163 -935 -305 -88 -30 -281 -92
-430 -140 -148 -48 -368 -119 -487 -158 l-218 -72 0 -2178 0 -2178 51 -105 51
-104 3524 0 c1938 0 3524 2 3524 6 0 3 -16 87 -35 187 -72 375 -83 433 -89
472 -4 22 -22 123 -42 225 -68 360 -134 740 -158 910 -9 58 -24 159 -35 225
-53 328 -125 803 -156 1035 -8 58 -19 130 -24 160 -6 30 -22 145 -36 255 -14
110 -29 218 -34 240 -10 43 -50 386 -76 655 -8 91 -15 230 -16 310 0 144 -13
249 -42 325 -28 74 -62 523 -58 755 3 153 31 340 65 443 68 201 249 575 365
753 36 56 85 134 109 175 24 41 65 105 92 143 60 83 58 106 -5 67z"/>
<path d="M18150 7000 c0 -4 12 -23 28 -43 258 -336 332 -461 405 -682 30 -94
42 -161 58 -344 12 -134 10 -174 -20 -401 -10 -78 -79 -347 -114 -445 -45
-124 -75 -202 -86 -223 -12 -23 -15 -65 -4 -75 3 -4 15 1 25 10 17 15 21 15
29 3 13 -21 -7 -450 -31 -680 -6 -52 -17 -158 -26 -235 -8 -77 -22 -216 -30
-310 -8 -93 -16 -176 -19 -183 -3 -7 -9 -73 -15 -145 -5 -73 -17 -170 -25
-217 -8 -47 -15 -104 -15 -128 0 -24 -7 -76 -15 -116 -8 -41 -19 -109 -24
-152 -16 -149 -76 -586 -96 -694 -8 -41 -17 -100 -20 -130 -4 -30 -11 -72 -16
-92 -11 -41 -41 -197 -64 -323 -42 -232 -58 -318 -100 -515 -25 -118 -50 -250
-55 -293 -5 -42 -14 -86 -19 -96 -6 -10 -14 -53 -20 -97 -5 -43 -16 -97 -24
-119 -8 -22 -17 -64 -21 -94 -4 -30 -11 -62 -16 -70 -4 -9 -11 -37 -15 -63
l-7 -48 3025 0 3025 0 31 50 c17 27 38 72 47 100 9 28 20 53 25 56 5 3 9 997
9 2318 l0 2314 -32 6 c-18 3 -134 38 -258 77 -124 39 -252 78 -285 89 -116 35
-592 183 -825 255 -475 148 -616 188 -1185 335 -249 64 -309 86 -690 250 -66
29 -241 94 -390 146 -148 52 -369 129 -490 172 -316 110 -695 299 -1190 592
-287 170 -402 234 -432 241 -18 4 -33 4 -33 -1z"/>
<path d="M12175 3551 c-93 -3 -177 -10 -185 -15 -28 -18 -184 -141 -229 -182
-26 -22 -72 -60 -104 -83 -94 -69 -297 -281 -444 -464 -75 -95 -162 -203 -192
-241 -78 -96 -119 -153 -211 -289 l-79 -119 16 -36 c8 -21 35 -82 58 -137 24
-55 56 -128 73 -163 16 -35 44 -109 62 -165 100 -320 107 -336 263 -657 49
-102 104 -219 122 -260 17 -41 43 -91 56 -111 14 -19 36 -68 49 -107 l24 -71
-30 -63 c-17 -35 -39 -81 -47 -103 -17 -41 -57 -227 -57 -264 l0 -21 984 0
984 0 -19 72 c-11 40 -24 105 -30 143 -5 39 -28 118 -50 177 -21 59 -39 116
-39 128 0 11 11 53 25 92 14 39 25 79 25 87 0 18 81 247 135 381 18 47 48 136
65 199 33 123 154 426 195 491 25 40 59 118 76 173 10 36 -25 130 -84 220 -22
34 -56 93 -75 131 -35 72 -180 290 -286 431 -73 97 -220 265 -353 401 -108
112 -277 300 -332 371 -42 54 -64 64 -139 61 -31 -1 -133 -4 -227 -7z"/>
</g>
</svg>
